<svg width="20" height="18" viewBox="0 0 20 18" fill="none" xmlns="http://www.w3.org/2000/svg">
<path d="M15.0908 10.9235C14.8855 10.9235 14.6802 10.8565 14.5237 10.7234C14.21 10.4565 14.21 10.025 14.5237 9.75811L16.6614 7.93884C17.3994 7.31684 17.8045 6.48533 17.8045 5.59583C17.8045 3.76769 16.0565 2.28018 13.9085 2.28018C12.864 2.28018 11.887 2.62493 11.1579 3.25094L9.0178 5.07232C8.70422 5.3392 8.1972 5.3392 7.88362 5.07232C7.57004 4.80532 7.57004 4.37394 7.88362 4.10694L10.0213 2.28768C11.0513 1.40292 12.4325 0.914795 13.9085 0.914795C16.9413 0.914795 19.4087 3.01468 19.4087 5.59583C19.4087 6.85271 18.8351 8.02822 17.7925 8.90685L15.6572 10.7234C15.5008 10.8565 15.2962 10.9235 15.0908 10.9235Z" fill="#505050"/>
<path d="M5.50021 17.9362C2.46737 17.9362 0 15.8363 0 13.2552C0 11.9984 0.573551 10.8228 1.61637 9.94429L3.75165 8.12765C4.06523 7.86077 4.57225 7.86077 4.88583 8.12765C5.19941 8.39452 5.19941 8.82603 4.88583 9.0929L2.7482 10.9123C2.00941 11.5342 1.60433 12.3657 1.60433 13.2552C1.60433 15.0833 3.35215 16.571 5.50021 16.571C6.54465 16.571 7.52167 16.2262 8.25076 15.6002L10.3909 13.7788C10.7045 13.5118 11.2115 13.5118 11.5251 13.7788C11.8388 14.0457 11.8388 14.4772 11.5251 14.7441L9.38743 16.5635C8.35754 17.4481 6.97617 17.9362 5.50021 17.9362Z" fill="#505050"/>
<path d="M6.68509 12.748C6.47975 12.748 6.27442 12.6811 6.118 12.548C5.80442 12.2811 5.80442 11.8496 6.118 11.5827L12.5352 6.1213C12.8487 5.85442 13.3558 5.85442 13.6693 6.1213C13.9831 6.3883 13.9831 6.81968 13.6693 7.08656L7.25217 12.548C7.0959 12.6811 6.89042 12.748 6.68509 12.748Z" fill="#505050"/>
</svg>
