<svg width="15" height="18" viewBox="0 0 15 18" fill="none" xmlns="http://www.w3.org/2000/svg">
<path d="M7.31089 0.515705C7.31089 0.802208 7.51699 1.03141 7.77461 1.03141L11.9928 1.03141C13.1401 1.03141 14.071 2.07046 14.071 3.34253L14.071 14.6575C14.071 15.9334 13.1366 16.9686 11.9928 16.9686L7.70591 16.9686C7.44829 16.9686 7.24219 17.1978 7.24219 17.4843C7.24219 17.7708 7.44829 18 7.70591 18L11.9928 18C13.6519 18 14.9984 16.4987 14.9984 14.6575L14.9984 3.34253C14.9984 1.49745 13.6485 -2.80027e-07 11.9928 -2.07655e-07L7.77461 -2.3273e-08C7.52042 -1.2162e-08 7.31089 0.229202 7.31089 0.515705Z" fill="#909090"/>
<path d="M11.3183 9.363C11.4076 9.26368 11.4557 9.12998 11.4557 9.0001C11.4557 8.87022 11.4111 8.73652 11.3183 8.63719L8.37108 5.3596C8.18903 5.15714 7.89705 5.15714 7.715 5.3596C7.53294 5.56206 7.53294 5.88677 7.715 6.08923L9.87218 8.48439L0.463724 8.48439C0.2061 8.48439 -1.78459e-07 8.7136 -1.65936e-07 9.0001C-1.53412e-07 9.2866 0.2061 9.5158 0.463724 9.5158L9.87218 9.5158L7.715 11.9148C7.53294 12.1173 7.53294 12.442 7.715 12.6444C7.89705 12.8469 8.18903 12.8469 8.37108 12.6444L11.3183 9.363Z" fill="#909090"/>
</svg>
