<svg width="70" height="40" viewBox="0 0 70 40" fill="none" xmlns="http://www.w3.org/2000/svg">
<path d="M3.33888 34.4784C3.30523 34.5526 3.2771 34.6292 3.25472 34.7076C3.2293 34.7958 3.20911 34.8855 3.19426 34.9761C3.19047 34.9032 3.17935 34.8308 3.16107 34.7601C3.13981 34.6781 3.11125 34.5982 3.07572 34.5214L2.46049 33.1786H2.41308L1.81089 34.525C1.7723 34.6068 1.73981 34.6913 1.71368 34.778C1.69538 34.8421 1.68502 34.9083 1.68286 34.9749C1.66706 34.8675 1.64849 34.7696 1.62715 34.6813C1.61093 34.6099 1.58873 34.54 1.56077 34.4724L1.00362 33.2693H0.395508L1.67931 35.9143L2.27201 34.6013C2.2894 34.5608 2.31311 34.4999 2.34314 34.4187C2.37317 34.3376 2.40715 34.2397 2.44508 34.1251C2.468 34.2007 2.49329 34.2775 2.52095 34.3555C2.54861 34.4334 2.58417 34.5226 2.62764 34.6228L3.20019 35.9203L4.48873 33.2753H3.88536L3.33888 34.4784Z" fill="#2B66FA"/>
<path d="M5.95871 33.1788C5.78497 33.1726 5.61184 33.2029 5.4504 33.2678C5.28895 33.3328 5.14272 33.4309 5.02105 33.5559C4.89852 33.6845 4.80294 33.8365 4.74001 34.003C4.67708 34.1695 4.64809 34.3471 4.65476 34.5251C4.64652 34.7035 4.67373 34.8817 4.73479 35.0494C4.79586 35.2171 4.88955 35.3707 5.01038 35.5015C5.13459 35.6254 5.28304 35.722 5.44629 35.785C5.60955 35.8481 5.78405 35.8763 5.95871 35.8679C6.21175 35.8743 6.46174 35.8112 6.68181 35.6853C6.90104 35.5481 7.07988 35.3544 7.19984 35.1243L6.72567 34.8557C6.65366 35.0062 6.54371 35.135 6.4068 35.2293C6.26868 35.3122 6.10993 35.3536 5.94923 35.3487C5.8578 35.3529 5.76651 35.3376 5.68133 35.3039C5.59616 35.2702 5.519 35.2187 5.45491 35.1529C5.3215 35.0006 5.24776 34.8046 5.24747 34.6015H7.22592V34.4917C7.22592 34.0779 7.11449 33.7561 6.89163 33.5261C6.66877 33.2961 6.3578 33.1804 5.95871 33.1788ZM5.28184 34.2136C5.31301 34.0532 5.39644 33.9079 5.51892 33.8006C5.64846 33.704 5.80719 33.6555 5.9682 33.6634C6.13513 33.655 6.29965 33.7062 6.43288 33.8078C6.55148 33.9121 6.6247 34.0591 6.63677 34.2172L5.28184 34.2136Z" fill="#2B66FA"/>
<path d="M8.88483 34.3305C8.83425 34.3098 8.76273 34.2828 8.67027 34.2493C8.37788 34.1419 8.23168 34.0226 8.23168 33.8913C8.23051 33.8514 8.23883 33.8119 8.25595 33.776C8.27306 33.7401 8.29848 33.7088 8.33006 33.6848C8.40534 33.63 8.49689 33.6026 8.58967 33.6072C8.68022 33.6051 8.76948 33.6291 8.8469 33.6764C8.9183 33.7199 8.97302 33.7863 9.00218 33.865L9.40522 33.5857C9.3419 33.4533 9.23629 33.3461 9.10531 33.2813C8.95179 33.2082 8.78313 33.173 8.61337 33.1787C8.36695 33.1664 8.1238 33.2397 7.92466 33.3864C7.84184 33.4495 7.77511 33.5316 7.72998 33.6258C7.68484 33.72 7.66259 33.8237 7.66506 33.9283C7.66163 34.0822 7.71823 34.2313 7.82272 34.3436C7.98361 34.4924 8.17271 34.6069 8.37867 34.6802C8.42608 34.7009 8.49325 34.7272 8.58018 34.759C8.83781 34.8553 8.96662 34.9711 8.96662 35.1063C8.9682 35.1519 8.95916 35.1973 8.94022 35.2387C8.92129 35.2802 8.89298 35.3166 8.85757 35.345C8.77076 35.4086 8.66477 35.4398 8.55766 35.4334C8.42928 35.4389 8.30228 35.4048 8.19374 35.3355C8.09744 35.2673 8.02883 35.1665 8.00053 35.0514L7.52637 35.3092C7.60579 35.4849 7.73753 35.6313 7.90332 35.7282C8.0893 35.8256 8.29717 35.8729 8.50669 35.8655C8.77072 35.8806 9.03212 35.8057 9.24875 35.653C9.33691 35.5841 9.40737 35.495 9.45419 35.393C9.50102 35.291 9.52284 35.1792 9.51783 35.0669C9.52301 34.9098 9.47023 34.7563 9.36966 34.6361C9.23361 34.4979 9.06767 34.3934 8.88483 34.3305Z" fill="#2B66FA"/>
<path d="M10.7966 32.324H10.23V33.2693H9.79492V33.7694H10.23V35.7651H10.7966V33.7694H11.2305V33.2693H10.7966V32.324Z" fill="#2B66FA"/>
<path d="M12.8345 33.1788C12.6607 33.1726 12.4876 33.2029 12.3262 33.2678C12.1647 33.3328 12.0185 33.4309 11.8968 33.5559C11.7751 33.684 11.6801 33.8353 11.6174 34.0009C11.5546 34.1666 11.5255 34.3432 11.5317 34.5203C11.5235 34.6987 11.5507 34.8769 11.6117 35.0446C11.6728 35.2122 11.7665 35.3659 11.8873 35.4966C12.0115 35.6205 12.16 35.7171 12.3232 35.7802C12.4865 35.8433 12.661 35.8715 12.8357 35.863C13.0892 35.8693 13.3396 35.8057 13.5599 35.6792C13.7792 35.5421 13.9581 35.3484 14.078 35.1183L13.6038 34.8497C13.5318 35.0002 13.4218 35.129 13.2849 35.2233C13.1468 35.3061 12.9881 35.3476 12.8274 35.3426C12.7359 35.3469 12.6446 35.3316 12.5595 35.2979C12.4743 35.2641 12.3971 35.2127 12.333 35.1469C12.2011 34.9957 12.1279 34.8015 12.1268 34.6003H14.1088V34.4917C14.1088 34.0779 13.9974 33.756 13.7745 33.5261C13.5517 33.2961 13.2383 33.1804 12.8345 33.1788ZM12.1576 34.2136C12.1888 34.0532 12.2722 33.9078 12.3947 33.8006C12.5242 33.704 12.683 33.6555 12.844 33.6633C13.0109 33.6537 13.1758 33.7036 13.3098 33.8042C13.4284 33.9085 13.5016 34.0555 13.5137 34.2136H12.1576Z" fill="#2B66FA"/>
<path d="M15.8793 33.1788C15.7453 33.1745 15.6139 33.2166 15.507 33.2981C15.3961 33.3961 15.3141 33.5228 15.27 33.6646V33.2623H14.7021V35.7689H15.27V34.6708C15.27 34.3127 15.3095 34.0577 15.3885 33.9057C15.4269 33.8322 15.4856 33.7716 15.5576 33.7311C15.6296 33.6906 15.7117 33.6721 15.7939 33.6777C15.858 33.6769 15.9219 33.6854 15.9836 33.7028C16.0401 33.7195 16.0934 33.7458 16.1412 33.7804L16.3451 33.2957C16.2721 33.2594 16.1954 33.231 16.1164 33.211C16.0389 33.1906 15.9593 33.1798 15.8793 33.1788Z" fill="#2B66FA"/>
<path d="M18.9373 33.5367C18.8638 33.421 18.7577 33.33 18.6326 33.2753C18.4826 33.2124 18.3209 33.1823 18.1585 33.187C17.9652 33.1815 17.7734 33.2224 17.5989 33.3064C17.4356 33.3946 17.2979 33.5242 17.1995 33.6823V33.2741H16.666V35.7699H17.2338V34.6324C17.2304 34.4824 17.2387 34.3324 17.2587 34.1837C17.2708 34.1013 17.3008 34.0227 17.3464 33.9533C17.4074 33.8629 17.4919 33.791 17.5906 33.7456C17.7022 33.6946 17.8237 33.6693 17.9463 33.6716C18.1486 33.6716 18.2892 33.7257 18.3683 33.8339C18.4473 33.9421 18.4868 34.1602 18.4868 34.488V35.7699H19.0594V34.2529C19.0641 34.0932 19.0546 33.9334 19.0309 33.7754C19.0142 33.6908 18.9825 33.61 18.9373 33.5367Z" fill="#2B66FA"/>
<path d="M22.1325 32.324H21.5647V33.2693H21.1309V33.7694H21.5647V35.7651H22.1325V33.7694H22.5664V33.2693H22.1325V32.324Z" fill="#2B66FA"/>
<path d="M24.2367 33.1788C24.1027 33.1745 23.9713 33.2166 23.8645 33.2981C23.7535 33.3961 23.6715 33.5228 23.6274 33.6646V33.2623H23.0596V35.7689H23.6215V34.6708C23.6215 34.3127 23.661 34.0577 23.74 33.9057C23.7784 33.8322 23.8371 33.7716 23.9091 33.7311C23.9811 33.6906 24.0632 33.6721 24.1454 33.6777C24.2095 33.6769 24.2733 33.6854 24.3351 33.7028C24.3916 33.7195 24.4449 33.7458 24.4927 33.7804L24.6966 33.2957C24.6235 33.2594 24.5469 33.231 24.4678 33.211C24.3923 33.1911 24.3147 33.1802 24.2367 33.1788Z" fill="#2B66FA"/>
<path d="M26.792 33.6777C26.7304 33.5233 26.6195 33.394 26.4767 33.3101C26.2612 33.1951 26.0138 33.1562 25.7737 33.1994C25.5337 33.2427 25.315 33.3657 25.1526 33.5488C24.9375 33.8222 24.828 34.1648 24.8444 34.5132C24.8444 34.9326 24.9451 35.2628 25.1467 35.5039C25.2486 35.6235 25.3763 35.718 25.5202 35.7801C25.6641 35.8422 25.8201 35.8702 25.9764 35.862C26.1376 35.8675 26.2975 35.8311 26.4407 35.7565C26.5839 35.6819 26.7057 35.5715 26.7944 35.4359V35.7593H27.3622V33.2695H26.7944L26.792 33.6777ZM26.6154 35.1255C26.5537 35.1976 26.4776 35.2557 26.3921 35.2961C26.3066 35.3365 26.2136 35.3582 26.1191 35.3599C26.0247 35.3616 25.9309 35.3432 25.8441 35.3059C25.7572 35.2686 25.6791 35.2132 25.6149 35.1434C25.4977 34.9596 25.4361 34.7455 25.4373 34.5271C25.4386 34.3087 25.5027 34.0953 25.622 33.9129C25.6838 33.8392 25.7616 33.7809 25.8494 33.7424C25.9371 33.7039 26.0325 33.6863 26.1282 33.6909C26.2224 33.6859 26.3165 33.7028 26.4033 33.7403C26.49 33.7777 26.567 33.8347 26.6284 33.9069C26.7571 34.0801 26.8206 34.2937 26.8074 34.5097C26.818 34.7314 26.7499 34.9497 26.6154 35.1255Z" fill="#2B66FA"/>
<path d="M29.9043 33.6776C29.8427 33.5231 29.7318 33.3938 29.589 33.3099C29.3736 33.1949 29.1261 33.156 28.886 33.1993C28.646 33.2425 28.4273 33.3655 28.2649 33.5487C28.0498 33.8221 27.9403 34.1647 27.9567 34.5131C27.9567 34.9324 28.0574 35.2627 28.259 35.5038C28.3609 35.6234 28.4887 35.7179 28.6325 35.78C28.7764 35.8421 28.9325 35.8701 29.0888 35.8619C29.2485 35.8681 29.4073 35.8332 29.55 35.7605C29.6927 35.6879 29.8146 35.5798 29.9043 35.4465V35.77H30.4721V31.6854H29.9043V33.6776ZM29.7289 35.1266C29.6669 35.1984 29.5906 35.2563 29.505 35.2965C29.4193 35.3367 29.3262 35.3583 29.2317 35.3599C29.1373 35.3614 29.0435 35.343 28.9566 35.3057C28.8697 35.2683 28.7915 35.213 28.7272 35.1433C28.6101 34.9595 28.5484 34.7454 28.5496 34.5269C28.5509 34.3085 28.615 34.0952 28.7343 33.9127C28.7961 33.8391 28.8739 33.7807 28.9617 33.7422C29.0494 33.7037 29.1449 33.6861 29.2405 33.6907C29.3347 33.6857 29.4288 33.7026 29.5156 33.7401C29.6023 33.7776 29.6793 33.8346 29.7407 33.9067C29.8694 34.08 29.9329 34.2936 29.9197 34.5095C29.9316 34.731 29.8653 34.9496 29.7324 35.1266H29.7289Z" fill="#2B66FA"/>
<path d="M32.3776 33.1785C32.2043 33.1735 32.0318 33.2049 31.8712 33.2706C31.7106 33.3364 31.5653 33.4351 31.4447 33.5604C31.3229 33.6885 31.2279 33.8398 31.1652 34.0055C31.1025 34.1711 31.0734 34.3477 31.0796 34.5249C31.0713 34.7033 31.0985 34.8815 31.1596 35.0492C31.2207 35.2168 31.3144 35.3705 31.4352 35.5012C31.5594 35.6252 31.7078 35.7217 31.8711 35.7848C32.0344 35.8479 32.2089 35.8761 32.3835 35.8677C32.6357 35.8737 32.8849 35.8105 33.1042 35.6851C33.3235 35.5479 33.5023 35.3542 33.6223 35.1241L33.1481 34.8555C33.0761 35.006 32.9661 35.1348 32.8292 35.2291C32.6911 35.312 32.5324 35.3534 32.3717 35.3485C32.2802 35.3527 32.1889 35.3374 32.1038 35.3037C32.0186 35.2699 31.9414 35.2185 31.8773 35.1527C31.7454 35.0015 31.6722 34.8073 31.6711 34.606H33.6531V34.4915C33.6531 34.0777 33.5417 33.7558 33.3188 33.5258C33.0959 33.2959 32.7822 33.1801 32.3776 33.1785ZM31.7007 34.2133C31.732 34.053 31.8154 33.9077 31.9378 33.8004C32.0673 33.7038 32.2261 33.6553 32.3871 33.6631C32.554 33.6535 32.7189 33.7033 32.8529 33.8039C32.9715 33.9082 33.0448 34.0553 33.0568 34.2133H31.7007Z" fill="#2B66FA"/>
<path d="M37.6162 33.6777C37.5546 33.5233 37.4437 33.394 37.3009 33.3101C37.0855 33.1951 36.838 33.1562 36.598 33.1994C36.3579 33.2427 36.1392 33.3657 35.9768 33.5488C35.7617 33.8222 35.6522 34.1648 35.6686 34.5133C35.6686 34.9326 35.7694 35.2628 35.9709 35.5039C36.0728 35.6236 36.2006 35.718 36.3444 35.7801C36.4883 35.8422 36.6444 35.8702 36.8007 35.862C36.9618 35.8675 37.1217 35.8312 37.2649 35.7566C37.4082 35.6819 37.5299 35.5715 37.6186 35.4359V35.7677C37.6186 36.0184 37.5645 36.1974 37.4562 36.3048C37.3479 36.4123 37.1737 36.466 36.9334 36.466C36.8009 36.4732 36.6689 36.4439 36.5517 36.3812C36.5086 36.3561 36.4724 36.3206 36.4463 36.2779C36.4202 36.2352 36.4051 36.1866 36.4024 36.1365H35.7931C35.7928 36.2513 35.8212 36.3642 35.8754 36.4652C35.9296 36.5661 36.0081 36.6517 36.1036 36.7142C36.3474 36.8702 36.6332 36.9461 36.9216 36.9315C37.3799 36.9315 37.7059 36.832 37.8995 36.6331C38.0932 36.4341 38.19 36.0908 38.19 35.603V33.2695H37.6222L37.6162 33.6777ZM37.4396 35.1256C37.3779 35.1976 37.3018 35.2557 37.2163 35.2961C37.1308 35.3365 37.0378 35.3582 36.9433 35.3599C36.8489 35.3616 36.7552 35.3432 36.6683 35.3059C36.5814 35.2686 36.5033 35.2133 36.4391 35.1435C36.322 34.9596 36.2603 34.7455 36.2615 34.5271C36.2628 34.3087 36.327 34.0953 36.4462 33.9129C36.508 33.8392 36.5858 33.7809 36.6736 33.7424C36.7614 33.7039 36.8568 33.6863 36.9524 33.6909C37.0466 33.6859 37.1408 33.7028 37.2275 33.7403C37.3142 33.7777 37.3912 33.8347 37.4526 33.9069C37.5812 34.0802 37.6447 34.2938 37.6316 34.5097C37.6422 34.7314 37.5741 34.9497 37.4396 35.1256Z" fill="#2B66FA"/>
<path d="M40.1488 33.1788C40.0148 33.1745 39.8834 33.2166 39.7766 33.2981C39.6656 33.3961 39.5836 33.5228 39.5395 33.6646V33.2623H38.9717V35.7689H39.5395V34.6708C39.5395 34.3127 39.579 34.0577 39.658 33.9057C39.6964 33.8322 39.7552 33.7716 39.8271 33.7311C39.8991 33.6906 39.9812 33.6721 40.0634 33.6777C40.1275 33.6769 40.1914 33.6854 40.2531 33.7028C40.3096 33.7195 40.3629 33.7458 40.4108 33.7804L40.6146 33.2957C40.5416 33.2594 40.4649 33.231 40.3859 33.211C40.3084 33.1906 40.2288 33.1798 40.1488 33.1788Z" fill="#2B66FA"/>
<path d="M43.0856 33.5771C42.9589 33.4499 42.8081 33.3497 42.6422 33.2823C42.3059 33.1489 41.9318 33.1489 41.5955 33.2823C41.432 33.3477 41.2829 33.4451 41.1569 33.5688C41.0304 33.6918 40.9296 33.8391 40.8605 34.0021C40.7927 34.1658 40.7578 34.3415 40.7578 34.5189C40.7578 34.6964 40.7927 34.872 40.8605 35.0358C41.0032 35.367 41.2686 35.6291 41.6002 35.7663C41.9342 35.9015 42.3071 35.9015 42.641 35.7663C42.8096 35.6969 42.9633 35.5956 43.0939 35.4679C43.2202 35.3471 43.3203 35.2011 43.3878 35.0394C43.4555 34.8752 43.4897 34.699 43.4886 34.5213C43.4892 34.3466 43.4545 34.1736 43.3867 34.0128C43.3165 33.8486 43.2141 33.7004 43.0856 33.5771ZM42.6636 35.1134C42.5947 35.1892 42.5109 35.2497 42.4175 35.2912C42.3242 35.3326 42.2233 35.354 42.1212 35.354C42.0192 35.354 41.9183 35.3326 41.8249 35.2912C41.7316 35.2497 41.6478 35.1892 41.5789 35.1134C41.435 34.9516 41.3555 34.7421 41.3555 34.5249C41.3555 34.3077 41.435 34.0982 41.5789 33.9364C41.6479 33.8606 41.7318 33.8 41.8252 33.7586C41.9187 33.7171 42.0197 33.6957 42.1218 33.6957C42.224 33.6957 42.325 33.7171 42.4184 33.7586C42.5119 33.8 42.5958 33.8606 42.6647 33.9364C42.8084 34.0983 42.8878 34.3078 42.8878 34.5249C42.8878 34.742 42.8084 34.9515 42.6647 35.1134H42.6636Z" fill="#2B66FA"/>
<path d="M45.9012 34.6755C45.9012 34.9143 45.8514 35.0881 45.7518 35.1971C45.6109 35.299 45.4417 35.3538 45.2682 35.3538C45.0947 35.3538 44.9255 35.299 44.7846 35.1971C44.685 35.0921 44.6352 34.9182 44.6352 34.6755V33.2694H44.0674V34.5036C44.0674 34.9811 44.1622 35.3284 44.3519 35.5457C44.5415 35.7629 44.8482 35.87 45.2718 35.8668C45.6882 35.8668 45.9913 35.759 46.181 35.5433C46.3706 35.3277 46.4655 34.9811 46.4655 34.5036V33.2694H45.8977L45.9012 34.6755Z" fill="#2B66FA"/>
<path d="M48.6412 33.1789C48.459 33.1738 48.2788 33.2183 48.1197 33.3078C47.9764 33.3912 47.8647 33.52 47.802 33.6742V33.266H47.2354V36.9348H47.8043V35.4465C47.893 35.5822 48.0148 35.6926 48.158 35.7672C48.3012 35.8418 48.4611 35.8781 48.6223 35.8726C48.7786 35.8808 48.9347 35.8528 49.0785 35.7907C49.2224 35.7287 49.3502 35.6342 49.4521 35.5146C49.6536 35.2759 49.7543 34.9457 49.7543 34.5239C49.7708 34.1758 49.6617 33.8333 49.4473 33.5596C49.3514 33.4376 49.2287 33.3398 49.0888 33.2737C48.9489 33.2076 48.7957 33.1752 48.6412 33.1789ZM48.9803 35.1398C48.9195 35.2121 48.8429 35.2692 48.7565 35.3066C48.6701 35.3441 48.5763 35.361 48.4824 35.3558C48.386 35.359 48.2902 35.3398 48.2024 35.2996C48.1146 35.2595 48.0372 35.1995 47.9762 35.1243C47.841 34.9479 47.7728 34.7286 47.7842 34.506C47.7711 34.29 47.835 34.0762 47.9644 33.9033C48.0296 33.8346 48.108 33.7801 48.1949 33.7431C48.2818 33.706 48.3753 33.6873 48.4697 33.6879C48.5641 33.6886 48.6573 33.7087 48.7437 33.747C48.8301 33.7852 48.9077 33.8409 48.972 33.9105C49.091 34.093 49.1551 34.3062 49.1566 34.5245C49.158 34.7428 49.0968 34.9569 48.9803 35.141V35.1398Z" fill="#2B66FA"/>
<path d="M47.2934 8.71843H43.8V0.664062H39.2327V8.71843H35.7393V12.982H39.2327V29.9895H43.8V12.982H47.2934V8.71843Z" fill="#2B66FA"/>
<path d="M65.4342 8.7194V12.1975C64.9007 10.836 64.0555 9.79284 62.8986 9.06793C61.7416 8.34302 60.3491 7.98017 58.7212 7.97937C56.0548 7.97937 53.8942 9.02257 52.2394 11.109C50.5845 13.1954 49.7547 15.9363 49.75 19.3317C49.75 22.9069 50.5604 25.7226 52.1813 27.7787C53.8021 29.8349 56.0224 30.8634 58.8421 30.8642C60.2448 30.8642 61.4899 30.565 62.5773 29.9666C63.6647 29.3682 64.6154 28.4559 65.4294 27.2297L65.3879 30.0573C65.3737 32.1962 64.9391 33.722 64.084 34.6348C63.2289 35.5475 61.8258 36.0038 59.8746 36.0038C58.5556 36.0038 57.5314 35.7651 56.802 35.2876C56.0726 34.8102 55.6727 34.1147 55.6024 33.2012L50.6983 33.2239C50.726 35.2729 51.5609 36.9145 53.2031 38.1487C54.8453 39.3829 57.0411 40 59.7904 40C63.4802 40 66.1039 39.1509 67.6616 37.4528C69.2192 35.7547 69.998 32.8269 69.998 28.6692V8.7194H65.4342ZM64.0117 24.5369C62.9843 25.8682 61.648 26.5338 60.0026 26.5338C58.264 26.5338 56.917 25.9207 55.9616 24.6945C55.0061 23.4683 54.5292 21.7256 54.5308 19.4665C54.5308 17.2226 55.0255 15.4688 56.0149 14.2052C57.0043 12.9415 58.362 12.3097 60.088 12.3097C61.8139 12.3097 63.1574 12.9228 64.1184 14.1491C65.0793 15.3753 65.5598 17.0861 65.5598 19.2815C65.5606 21.4539 65.0454 23.2057 64.014 24.5369H64.0117Z" fill="#2B66FA"/>
<path d="M36.0783 28.0342L30.469 18.748L25.8174 30.5395L18.302 12.6082L11.3175 30.5395L6.37081 17.9423L0.242252 28.0342C0.0887993 28.2885 0.00527536 28.5794 0.000241792 28.8769C-0.00479178 29.1745 0.0688462 29.468 0.213607 29.7275C0.358368 29.9869 0.569046 30.203 0.824044 30.3534C1.07904 30.5039 1.36919 30.5834 1.66474 30.5837H34.6535C34.9492 30.5838 35.2397 30.5046 35.495 30.3543C35.7503 30.204 35.9614 29.988 36.1064 29.7285C36.2514 29.469 36.3253 29.1753 36.3204 28.8775C36.3154 28.5798 36.2319 28.2887 36.0783 28.0342Z" fill="#2B66FA"/>
<path d="M18.2848 3.42239L25.5419 21.1233L27.8949 14.487L19.6267 0.803655C19.4778 0.558195 19.2688 0.355369 19.0197 0.21464C18.7706 0.0739106 18.4898 0 18.2042 0C17.9186 0 17.6377 0.0739106 17.3886 0.21464C17.1395 0.355369 16.9305 0.558195 16.7817 0.803655L8.95801 13.6944L11.7579 21.14L18.2848 3.42239Z" fill="#2B66FA"/>
<path d="M67.7229 0.681707C68.027 0.679751 68.3284 0.73858 68.6096 0.854783C68.8893 0.971774 69.1419 1.1457 69.3517 1.36566C69.5593 1.57477 69.7233 1.82354 69.8342 2.09735C69.9454 2.3737 70.0018 2.66933 70.0001 2.96751C70.0023 3.272 69.9443 3.57388 69.8294 3.85557C69.7161 4.13159 69.5474 4.38108 69.3339 4.58846C69.1187 4.80064 68.8652 4.96957 68.5871 5.08621C68.3137 5.20101 68.0204 5.25985 67.7241 5.25928C67.4259 5.25983 67.1307 5.19932 66.8564 5.08143C66.3014 4.83896 65.8601 4.39117 65.6236 3.83051C65.5109 3.55399 65.4537 3.25779 65.4551 2.95892C65.4565 2.66005 65.5166 2.36441 65.6319 2.089C65.7504 1.80523 65.9232 1.5477 66.1404 1.33104C66.3456 1.12178 66.5908 0.956522 66.8612 0.845234C67.1352 0.734987 67.4279 0.679447 67.7229 0.681707ZM67.7229 1.02547C67.4712 1.02307 67.2215 1.07052 66.988 1.16513C66.7582 1.26093 66.5498 1.40218 66.3751 1.58051C66.1916 1.76694 66.0444 1.98638 65.9413 2.22746C65.841 2.46236 65.7893 2.7154 65.7895 2.97109C65.7904 3.22374 65.8411 3.47369 65.9389 3.70637C66.0356 3.94099 66.1769 4.15429 66.355 4.33422C66.533 4.51941 66.7452 4.66781 66.9797 4.77109C67.2041 4.86982 67.4461 4.9214 67.6909 4.92268C67.9516 4.92256 68.2098 4.87106 68.4508 4.77109C68.6904 4.67352 68.9083 4.52909 69.0921 4.34615C69.272 4.17242 69.415 3.96371 69.5124 3.73268C69.6098 3.50165 69.6596 3.25311 69.6587 3.00213C69.6607 2.74123 69.6133 2.48236 69.5189 2.2394C69.4251 2.0026 69.2853 1.78709 69.1075 1.60558C68.9254 1.42194 68.7096 1.27561 68.4721 1.17468C68.236 1.0751 67.9825 1.02436 67.7265 1.02547H67.7229ZM66.7948 1.64377H67.7751C68.1292 1.64377 68.3975 1.70226 68.58 1.81924C68.6676 1.87319 68.7393 1.94982 68.7874 2.04116C68.8356 2.13249 68.8585 2.23516 68.8538 2.33847C68.8643 2.50659 68.8118 2.67255 68.7067 2.80359C68.6015 2.93464 68.4515 3.02123 68.286 3.04629L68.8538 4.20889H68.2433L67.7384 3.13462H67.3413V4.20889H66.7948V1.64377ZM67.3413 1.98993V2.79682H67.6969C67.8525 2.80854 68.0082 2.77586 68.1461 2.70252C68.1937 2.66967 68.2319 2.62482 68.2569 2.57246C68.2818 2.52009 68.2927 2.46204 68.2884 2.40412C68.2922 2.34343 68.2806 2.28276 68.2547 2.22784C68.2287 2.17291 68.1894 2.12554 68.1402 2.09019C67.995 2.01154 67.8304 1.97673 67.6661 1.98993H67.3413Z" fill="#2B66FA"/>
</svg>
