<svg width="53" height="27" viewBox="0 0 53 27" fill="none" xmlns="http://www.w3.org/2000/svg">
<path d="M2.50441 22.816C2.47917 22.8634 2.45807 22.9122 2.44129 22.9623C2.42222 23.0186 2.40708 23.0758 2.39594 23.1337C2.3931 23.0871 2.38476 23.0409 2.37105 22.9958C2.3551 22.9435 2.33368 22.8925 2.30704 22.8434L1.84562 21.9863H1.81005L1.35841 22.8457C1.32947 22.8979 1.3051 22.9519 1.28551 23.0072C1.27178 23.0481 1.26401 23.0904 1.26239 23.1329C1.25054 23.0644 1.23661 23.0019 1.22061 22.9455C1.20844 22.8999 1.19179 22.8553 1.17082 22.8122L0.752962 22.0442H0.296875L1.25973 23.7325L1.70426 22.8945C1.71729 22.8686 1.73508 22.8297 1.7576 22.7779C1.78012 22.7261 1.80561 22.6636 1.83406 22.5905C1.85125 22.6387 1.87021 22.6877 1.89096 22.7375C1.9117 22.7873 1.93837 22.8442 1.97097 22.9082L2.40039 23.7363L3.3668 22.048H2.91426L2.50441 22.816Z" fill="#2B66FA"/>
<path d="M4.47123 21.9868C4.34092 21.9829 4.21108 22.0022 4.09 22.0437C3.96891 22.0851 3.85924 22.1478 3.76799 22.2276C3.67609 22.3096 3.6044 22.4067 3.55721 22.513C3.51001 22.6192 3.48826 22.7326 3.49327 22.8462C3.48709 22.9601 3.50749 23.0738 3.55329 23.1809C3.59909 23.2879 3.66936 23.386 3.75998 23.4694C3.85314 23.5485 3.96448 23.6102 4.08692 23.6504C4.20936 23.6907 4.34023 23.7087 4.47123 23.7033C4.66101 23.7074 4.8485 23.6671 5.01356 23.5867C5.17798 23.4992 5.31211 23.3755 5.40208 23.2287L5.04645 23.0572C4.99244 23.1533 4.90998 23.2355 4.8073 23.2957C4.70371 23.3486 4.58464 23.375 4.46412 23.3719C4.39554 23.3746 4.32708 23.3648 4.2632 23.3433C4.19931 23.3218 4.14145 23.2889 4.09338 23.2469C3.99332 23.1497 3.93801 23.0246 3.9378 22.895H5.42164V22.8249C5.42164 22.5608 5.33806 22.3553 5.17092 22.2085C5.00378 22.0617 4.77055 21.9878 4.47123 21.9868ZM3.96358 22.6474C3.98695 22.545 4.04953 22.4522 4.14139 22.3838C4.23854 22.3221 4.35759 22.2911 4.47834 22.2961C4.60355 22.2908 4.72693 22.3235 4.82686 22.3883C4.91581 22.4549 4.97072 22.5487 4.97977 22.6496L3.96358 22.6474Z" fill="#2B66FA"/>
<path d="M6.66338 22.7216C6.62545 22.7084 6.57181 22.6912 6.50246 22.6698C6.28316 22.6013 6.17351 22.5251 6.17351 22.4413C6.17264 22.4159 6.17888 22.3906 6.19172 22.3677C6.20455 22.3448 6.22362 22.3248 6.24731 22.3095C6.30376 22.2745 6.37243 22.257 6.44201 22.26C6.50992 22.2586 6.57687 22.2739 6.63493 22.3041C6.68848 22.3319 6.72953 22.3743 6.75139 22.4245L7.05367 22.2462C7.00618 22.1617 6.92698 22.0933 6.82874 22.052C6.7136 22.0053 6.5871 21.9828 6.45979 21.9864C6.27497 21.9786 6.09261 22.0254 5.94325 22.119C5.88114 22.1593 5.83109 22.2117 5.79724 22.2718C5.76339 22.332 5.7467 22.3981 5.74855 22.4649C5.74598 22.5631 5.78843 22.6583 5.86679 22.73C5.98746 22.825 6.12929 22.8981 6.28376 22.9449C6.31932 22.9581 6.3697 22.9748 6.43489 22.9951C6.62811 23.0566 6.72472 23.1305 6.72472 23.2169C6.72591 23.246 6.71913 23.2749 6.70492 23.3014C6.69072 23.3278 6.66949 23.3511 6.64293 23.3692C6.57783 23.4098 6.49833 23.4297 6.418 23.4256C6.32171 23.4291 6.22647 23.4073 6.14506 23.3631C6.07284 23.3196 6.02138 23.2552 6.00015 23.1818L5.64453 23.3464C5.7041 23.4585 5.80291 23.5519 5.92725 23.6138C6.06673 23.676 6.22263 23.7062 6.37977 23.7014C6.5778 23.7111 6.77385 23.6633 6.93632 23.5658C7.00244 23.5218 7.05528 23.4649 7.0904 23.3998C7.12552 23.3347 7.14189 23.2634 7.13813 23.1917C7.14202 23.0914 7.10243 22.9934 7.027 22.9167C6.92496 22.8285 6.80051 22.7618 6.66338 22.7216Z" fill="#2B66FA"/>
<path d="M8.09892 21.4409H7.67395V22.0443H7.34766V22.3635H7.67395V23.6374H8.09892V22.3635H8.42432V22.0443H8.09892V21.4409Z" fill="#2B66FA"/>
<path d="M9.62659 21.9868C9.49628 21.9829 9.36644 22.0022 9.24536 22.0437C9.12427 22.0851 9.0146 22.1478 8.92335 22.2276C8.83205 22.3093 8.76078 22.4059 8.71375 22.5116C8.66672 22.6173 8.64488 22.7301 8.64952 22.8431C8.64334 22.957 8.66374 23.0708 8.70954 23.1778C8.75534 23.2848 8.82561 23.3829 8.91623 23.4663C9.00939 23.5454 9.12073 23.6071 9.24317 23.6473C9.36561 23.6876 9.49648 23.7056 9.62748 23.7002C9.81764 23.7042 10.0055 23.6636 10.1707 23.5829C10.3351 23.4953 10.4693 23.3717 10.5592 23.2248L10.2036 23.0534C10.1496 23.1494 10.0671 23.2317 9.96443 23.2919C9.86084 23.3447 9.74178 23.3712 9.62126 23.368C9.55268 23.3707 9.48422 23.361 9.42034 23.3394C9.35645 23.3179 9.29859 23.2851 9.25052 23.2431C9.15159 23.1466 9.09666 23.0227 9.09582 22.8942H10.5823V22.8248C10.5823 22.5607 10.4988 22.3553 10.3316 22.2085C10.1645 22.0617 9.92946 21.9878 9.62659 21.9868ZM9.11894 22.6473C9.14231 22.545 9.20489 22.4522 9.29675 22.3837C9.3939 22.3221 9.51295 22.2911 9.6337 22.2961C9.75888 22.29 9.88259 22.3218 9.9831 22.386C10.0721 22.4526 10.127 22.5464 10.136 22.6473H9.11894Z" fill="#2B66FA"/>
<path d="M11.9102 21.9865C11.8097 21.9838 11.7112 22.0107 11.631 22.0627C11.5478 22.1252 11.4863 22.2061 11.4532 22.2966V22.0399H11.0273V23.6398H11.4532V22.9389C11.4532 22.7103 11.4828 22.5475 11.5421 22.4505C11.5709 22.4036 11.615 22.3649 11.6689 22.3391C11.7229 22.3132 11.7845 22.3014 11.8462 22.305C11.8942 22.3045 11.9421 22.3099 11.9884 22.321C12.0308 22.3317 12.0708 22.3484 12.1067 22.3705L12.2596 22.0612C12.2048 22.038 12.1473 22.0199 12.088 22.0071C12.0299 21.9941 11.9702 21.9872 11.9102 21.9865Z" fill="#2B66FA"/>
<path d="M14.2034 22.2147C14.1484 22.1409 14.0688 22.0828 13.975 22.0479C13.8624 22.0077 13.7412 21.9885 13.6193 21.9915C13.4744 21.988 13.3305 22.0141 13.1997 22.0677C13.0772 22.124 12.9739 22.2068 12.9001 22.3077V22.0471H12.5V23.6402H12.9259V22.9141C12.9233 22.8184 12.9295 22.7226 12.9445 22.6277C12.9536 22.5751 12.9761 22.5249 13.0103 22.4806C13.0561 22.4229 13.1194 22.3771 13.1935 22.3481C13.2772 22.3155 13.3683 22.2994 13.4602 22.3008C13.6119 22.3008 13.7174 22.3354 13.7767 22.4045C13.836 22.4735 13.8656 22.6127 13.8656 22.822V23.6402H14.295V22.6719C14.2985 22.5699 14.2914 22.468 14.2737 22.3671C14.2612 22.3131 14.2374 22.2615 14.2034 22.2147Z" fill="#2B66FA"/>
<path d="M16.5989 21.4409H16.1731V22.0443H15.8477V22.3635H16.1731V23.6374H16.5989V22.3635H16.9243V22.0443H16.5989V21.4409Z" fill="#2B66FA"/>
<path d="M18.1797 21.9865C18.0792 21.9838 17.9807 22.0107 17.9005 22.0627C17.8173 22.1252 17.7558 22.2061 17.7227 22.2966V22.0399H17.2969V23.6398H17.7183V22.9389C17.7183 22.7103 17.7479 22.5475 17.8072 22.4505C17.836 22.4036 17.88 22.3649 17.934 22.3391C17.988 22.3132 18.0496 22.3014 18.1112 22.305C18.1593 22.3045 18.2072 22.3099 18.2535 22.321C18.2959 22.3317 18.3359 22.3484 18.3717 22.3705L18.5247 22.0612C18.4699 22.038 18.4123 22.0199 18.3531 22.0071C18.2964 21.9944 18.2382 21.9875 18.1797 21.9865Z" fill="#2B66FA"/>
<path d="M20.0947 22.305C20.0485 22.2065 19.9653 22.1239 19.8583 22.0704C19.6967 21.997 19.511 21.9721 19.331 21.9997C19.151 22.0274 18.987 22.1059 18.8652 22.2228C18.7038 22.3973 18.6217 22.6159 18.634 22.8383C18.634 23.106 18.7096 23.3168 18.8607 23.4707C18.9371 23.547 19.033 23.6073 19.1409 23.647C19.2488 23.6866 19.3658 23.7045 19.4831 23.6992C19.6039 23.7027 19.7238 23.6796 19.8313 23.6319C19.9387 23.5843 20.03 23.5138 20.0965 23.4273V23.6337H20.5224V22.0445H20.0965L20.0947 22.305ZM19.9623 23.2292C19.916 23.2751 19.859 23.3122 19.7948 23.338C19.7307 23.3638 19.6609 23.3777 19.5901 23.3788C19.5192 23.3798 19.4489 23.3681 19.3838 23.3443C19.3186 23.3205 19.26 23.2851 19.2119 23.2406C19.124 23.1233 19.0778 22.9866 19.0787 22.8472C19.0797 22.7078 19.1278 22.5716 19.2172 22.4551C19.2636 22.4081 19.3219 22.3709 19.3878 22.3463C19.4536 22.3217 19.5251 22.3105 19.5969 22.3134C19.6676 22.3103 19.7381 22.3211 19.8032 22.345C19.8682 22.3689 19.926 22.4053 19.9721 22.4513C20.0686 22.5619 20.1161 22.6982 20.1063 22.8361C20.1142 22.9776 20.0632 23.1169 19.9623 23.2292Z" fill="#2B66FA"/>
<path d="M22.4268 22.3048C22.3806 22.2062 22.2974 22.1236 22.1903 22.0701C22.0287 21.9967 21.8431 21.9719 21.6631 21.9995C21.4831 22.0271 21.319 22.1056 21.1972 22.2225C21.0359 22.397 20.9538 22.6157 20.966 22.8381C20.966 23.1058 21.0416 23.3166 21.1928 23.4705C21.2692 23.5468 21.365 23.6071 21.4729 23.6468C21.5808 23.6864 21.6979 23.7043 21.8151 23.699C21.9349 23.703 22.054 23.6807 22.161 23.6343C22.268 23.588 22.3595 23.519 22.4268 23.4339V23.6404H22.8526V21.0332H22.4268V22.3048ZM22.2952 23.2297C22.2487 23.2756 22.1915 23.3125 22.1273 23.3382C22.063 23.3638 21.9932 23.3776 21.9223 23.3786C21.8515 23.3796 21.7812 23.3678 21.716 23.344C21.6508 23.3202 21.5922 23.2849 21.5439 23.2404C21.4561 23.123 21.4098 22.9864 21.4108 22.8469C21.4117 22.7075 21.4598 22.5713 21.5493 22.4549C21.5956 22.4079 21.654 22.3706 21.7198 22.346C21.7856 22.3215 21.8572 22.3102 21.9289 22.3132C21.9996 22.31 22.0702 22.3208 22.1352 22.3447C22.2003 22.3686 22.258 22.405 22.3041 22.4511C22.4006 22.5616 22.4482 22.698 22.4383 22.8358C22.4473 22.9772 22.3975 23.1167 22.2979 23.2297H22.2952Z" fill="#2B66FA"/>
<path d="M24.2832 21.9867C24.1532 21.9835 24.0239 22.0035 23.9034 22.0455C23.783 22.0874 23.674 22.1504 23.5835 22.2305C23.4922 22.3122 23.4209 22.4088 23.3739 22.5145C23.3269 22.6202 23.305 22.733 23.3097 22.8461C23.3035 22.9599 23.3239 23.0737 23.3697 23.1807C23.4155 23.2877 23.4858 23.3858 23.5764 23.4693C23.6695 23.5484 23.7809 23.61 23.9033 23.6503C24.0258 23.6905 24.1566 23.7086 24.2876 23.7032C24.4768 23.707 24.6636 23.6667 24.8282 23.5866C24.9926 23.499 25.1267 23.3754 25.2167 23.2285L24.8611 23.0571C24.8071 23.1531 24.7246 23.2354 24.6219 23.2956C24.5183 23.3484 24.3993 23.3749 24.2787 23.3717C24.2102 23.3744 24.1417 23.3647 24.0778 23.3432C24.0139 23.3216 23.9561 23.2888 23.908 23.2468C23.8091 23.1503 23.7541 23.0263 23.7533 22.8979H25.2398V22.8247C25.2398 22.5606 25.1562 22.3552 24.9891 22.2084C24.822 22.0616 24.5867 21.9877 24.2832 21.9867ZM23.7755 22.6472C23.799 22.5448 23.8615 22.4521 23.9533 22.3836C24.0505 22.3219 24.1696 22.291 24.2903 22.296C24.4155 22.2898 24.5392 22.3217 24.6397 22.3859C24.7287 22.4525 24.7836 22.5463 24.7926 22.6472H23.7755Z" fill="#2B66FA"/>
<path d="M28.2119 22.305C28.1657 22.2065 28.0825 22.1239 27.9754 22.0704C27.8139 21.997 27.6282 21.9721 27.4482 21.9997C27.2682 22.0274 27.1042 22.1059 26.9824 22.2228C26.821 22.3973 26.7389 22.616 26.7512 22.8383C26.7512 23.106 26.8268 23.3168 26.9779 23.4707C27.0543 23.5471 27.1502 23.6074 27.2581 23.647C27.366 23.6866 27.483 23.7045 27.6003 23.6993C27.7211 23.7028 27.841 23.6796 27.9485 23.6319C28.0559 23.5843 28.1472 23.5138 28.2137 23.4273V23.6391C28.2137 23.7991 28.1731 23.9133 28.0919 23.9819C28.0107 24.0505 27.88 24.0848 27.6998 24.0848C27.6004 24.0894 27.5015 24.0707 27.4136 24.0307C27.3812 24.0146 27.354 23.992 27.3345 23.9647C27.3149 23.9375 27.3036 23.9064 27.3015 23.8745H26.8446C26.8444 23.9477 26.8656 24.0198 26.9063 24.0842C26.947 24.1486 27.0058 24.2033 27.0775 24.2432C27.2603 24.3428 27.4746 24.3912 27.6909 24.3819C28.0347 24.3819 28.2792 24.3184 28.4244 24.1914C28.5696 24.0644 28.6422 23.8453 28.6422 23.5339V22.0445H28.2164L28.2119 22.305ZM28.0795 23.2292C28.0332 23.2752 27.9761 23.3123 27.912 23.338C27.8479 23.3638 27.7781 23.3777 27.7073 23.3788C27.6364 23.3799 27.5661 23.3681 27.501 23.3443C27.4358 23.3205 27.3772 23.2852 27.3291 23.2406C27.2412 23.1233 27.195 22.9866 27.1959 22.8472C27.1969 22.7078 27.245 22.5716 27.3344 22.4551C27.3808 22.4081 27.4391 22.3709 27.5049 22.3463C27.5708 22.3217 27.6423 22.3105 27.7141 22.3134C27.7847 22.3103 27.8553 22.3211 27.9204 22.345C27.9854 22.3689 28.0432 22.4053 28.0892 22.4513C28.1857 22.5619 28.2333 22.6982 28.2235 22.8361C28.2314 22.9776 28.1804 23.1169 28.0795 23.2292Z" fill="#2B66FA"/>
<path d="M30.1133 21.9865C30.0128 21.9838 29.9143 22.0107 29.8341 22.0627C29.7509 22.1252 29.6894 22.2061 29.6563 22.2966V22.0399H29.2305V23.6398H29.6563V22.9389C29.6563 22.7103 29.686 22.5475 29.7452 22.4505C29.774 22.4036 29.8181 22.3649 29.8721 22.3391C29.926 22.3132 29.9876 22.3014 30.0493 22.305C30.0973 22.3045 30.1452 22.3099 30.1915 22.321C30.2339 22.3317 30.2739 22.3484 30.3098 22.3705L30.4627 22.0612C30.4079 22.038 30.3504 22.0199 30.2911 22.0071C30.233 21.9941 30.1733 21.9872 30.1133 21.9865Z" fill="#2B66FA"/>
<path d="M32.3161 22.2408C32.2211 22.1596 32.108 22.0956 31.9836 22.0526C31.7314 21.9675 31.4508 21.9675 31.1986 22.0526C31.0759 22.0944 30.9641 22.1565 30.8696 22.2355C30.7747 22.314 30.6992 22.4081 30.6474 22.5121C30.5965 22.6166 30.5703 22.7287 30.5703 22.842C30.5703 22.9552 30.5965 23.0674 30.6474 23.1719C30.7544 23.3833 30.9534 23.5506 31.2021 23.6382C31.4526 23.7245 31.7323 23.7245 31.9827 23.6382C32.1091 23.5939 32.2244 23.5292 32.3224 23.4477C32.4171 23.3706 32.4922 23.2774 32.5428 23.1742C32.5936 23.0694 32.6193 22.9569 32.6184 22.8435C32.6188 22.732 32.5928 22.6215 32.5419 22.5189C32.4894 22.4141 32.4125 22.3195 32.3161 22.2408ZM31.9996 23.2214C31.948 23.2698 31.8851 23.3084 31.8151 23.3349C31.7451 23.3613 31.6694 23.375 31.5929 23.375C31.5164 23.375 31.4407 23.3613 31.3706 23.3349C31.3006 23.3084 31.2378 23.2698 31.1861 23.2214C31.0782 23.1181 31.0186 22.9844 31.0186 22.8458C31.0186 22.7072 31.0782 22.5734 31.1861 22.4701C31.2379 22.4217 31.3008 22.3831 31.3709 22.3566C31.441 22.3302 31.5167 22.3165 31.5933 22.3165C31.6699 22.3165 31.7457 22.3302 31.8158 22.3566C31.8859 22.3831 31.9488 22.4217 32.0005 22.4701C32.1082 22.5735 32.1678 22.7072 32.1678 22.8458C32.1678 22.9843 32.1082 23.1181 32.0005 23.2214H31.9996Z" fill="#2B66FA"/>
<path d="M34.4262 22.942C34.4262 23.0943 34.3888 23.2053 34.3141 23.2749C34.2084 23.3399 34.0815 23.3749 33.9514 23.3749C33.8213 23.3749 33.6944 23.3399 33.5887 23.2749C33.514 23.2079 33.4766 23.0969 33.4766 22.942V22.0444H33.0508V22.8322C33.0508 23.137 33.1219 23.3587 33.2642 23.4974C33.4064 23.636 33.6364 23.7044 33.9541 23.7023C34.2664 23.7023 34.4937 23.6335 34.636 23.4959C34.7782 23.3582 34.8493 23.137 34.8493 22.8322V22.0444H34.4235L34.4262 22.942Z" fill="#2B66FA"/>
<path d="M36.4802 21.9866C36.3435 21.9833 36.2084 22.0118 36.089 22.0689C35.9816 22.1221 35.8978 22.2043 35.8508 22.3027V22.0422H35.4258V24.384H35.8525V23.434C35.919 23.5206 36.0104 23.5911 36.1178 23.6387C36.2252 23.6863 36.3451 23.7095 36.466 23.706C36.5832 23.7112 36.7003 23.6934 36.8082 23.6537C36.9161 23.6141 37.0119 23.5538 37.0883 23.4775C37.2395 23.3251 37.315 23.1143 37.315 22.8451C37.3273 22.6229 37.2456 22.4043 37.0848 22.2296C37.0128 22.1518 36.9208 22.0893 36.8159 22.0471C36.711 22.005 36.5961 21.9842 36.4802 21.9866ZM36.7345 23.2382C36.6889 23.2844 36.6314 23.3208 36.5667 23.3447C36.5019 23.3687 36.4315 23.3794 36.3611 23.3761C36.2888 23.3782 36.2169 23.3659 36.1511 23.3403C36.0853 23.3146 36.0272 23.2763 35.9814 23.2283C35.88 23.1158 35.8289 22.9758 35.8374 22.8337C35.8276 22.6958 35.8755 22.5594 35.9726 22.449C36.0215 22.4052 36.0803 22.3704 36.1455 22.3467C36.2107 22.3231 36.2808 22.3111 36.3516 22.3115C36.4223 22.3119 36.4923 22.3248 36.557 22.3492C36.6218 22.3736 36.6801 22.4091 36.7283 22.4536C36.8175 22.5701 36.8656 22.7062 36.8667 22.8455C36.8678 22.9848 36.8219 23.1215 36.7345 23.239V23.2382Z" fill="#2B66FA"/>
<path d="M35.4703 6.37351H32.8503V1.23242H29.4247V6.37351H26.8047V9.09491H29.4247V19.9508H32.8503V9.09491H35.4703V6.37351Z" fill="#2B66FA"/>
<path d="M49.0756 6.37422V8.59431C48.6756 7.72527 48.0417 7.05939 47.1739 6.59668C46.3062 6.13397 45.2619 5.90236 44.0409 5.90186C42.0411 5.90186 40.4206 6.56773 39.1795 7.89948C37.9384 9.23123 37.3161 10.9807 37.3125 13.148C37.3125 15.4301 37.9203 17.2273 39.136 18.5398C40.3516 19.8522 42.0168 20.5087 44.1316 20.5092C45.1836 20.5092 46.1174 20.3182 46.933 19.9363C47.7486 19.5543 48.4616 18.972 49.0721 18.1893L49.041 19.9942C49.0303 21.3594 48.7043 22.3334 48.063 22.9159C47.4217 23.4985 46.3693 23.7898 44.906 23.7898C43.9167 23.7898 43.1486 23.6374 42.6015 23.3327C42.0544 23.0279 41.7545 22.584 41.7018 22.0009L38.0237 22.0154C38.0445 23.3233 38.6707 24.3711 39.9023 25.1589C41.134 25.9467 42.7808 26.3406 44.8428 26.3406C47.6102 26.3406 49.578 25.7986 50.7462 24.7147C51.9144 23.6308 52.4985 21.762 52.4985 19.1081V6.37422H49.0756ZM48.0088 16.4705C47.2382 17.3203 46.236 17.7451 45.002 17.7451C43.698 17.7451 42.6877 17.3538 41.9712 16.5711C41.2546 15.7884 40.8969 14.6761 40.8981 13.2341C40.8981 11.8018 41.2691 10.6823 42.0112 9.87577C42.7532 9.0692 43.7715 8.66592 45.066 8.66592C46.3605 8.66592 47.3681 9.05727 48.0888 9.83996C48.8095 10.6227 49.1699 11.7147 49.1699 13.116C49.1705 14.5026 48.784 15.6208 48.0105 16.4705H48.0088Z" fill="#2B66FA"/>
<path d="M27.0588 18.7026L22.8518 12.7753L19.3631 20.3018L13.7265 8.8562L8.48815 20.3018L4.77812 12.261L0.181689 18.7026C0.0665996 18.865 0.00395652 19.0506 0.000181344 19.2405C-0.00359384 19.4305 0.0516347 19.6178 0.160206 19.7834C0.268777 19.949 0.426785 20.0869 0.618034 20.183C0.809282 20.279 1.02689 20.3297 1.24856 20.33H25.9901C26.2119 20.33 26.4298 20.2795 26.6213 20.1836C26.8128 20.0876 26.971 19.9498 27.0798 19.7841C27.1886 19.6184 27.244 19.431 27.2403 19.2409C27.2366 19.0509 27.1739 18.8651 27.0588 18.7026Z" fill="#2B66FA"/>
<path d="M13.7138 2.9931L19.1567 14.2916L20.9214 10.0556L14.7203 1.32157C14.6086 1.16489 14.4519 1.03543 14.2651 0.945598C14.0782 0.855771 13.8676 0.808594 13.6534 0.808594C13.4392 0.808594 13.2285 0.855771 13.0417 0.945598C12.8549 1.03543 12.6982 1.16489 12.5865 1.32157L6.71875 9.54973L8.8187 14.3023L13.7138 2.9931Z" fill="#2B66FA"/>
<path d="M50.7907 1.24369C51.0188 1.24245 51.2448 1.28 51.4558 1.35417C51.6655 1.42884 51.855 1.53986 52.0123 1.68026C52.168 1.81374 52.291 1.97252 52.3742 2.1473C52.4576 2.32369 52.4999 2.51239 52.4986 2.70272C52.5003 2.89708 52.4567 3.08977 52.3706 3.26957C52.2856 3.44575 52.1591 3.605 51.999 3.73737C51.8375 3.87281 51.6474 3.98063 51.4389 4.05508C51.2338 4.12836 51.0138 4.16592 50.7916 4.16555C50.568 4.1659 50.3466 4.12728 50.1408 4.05203C49.7246 3.89726 49.3936 3.61144 49.2162 3.25357C49.1317 3.07707 49.0888 2.888 49.0899 2.69723C49.0909 2.50647 49.136 2.31776 49.2224 2.14197C49.3114 1.96084 49.441 1.79646 49.6039 1.65816C49.7578 1.52459 49.9416 1.41911 50.1444 1.34807C50.3499 1.2777 50.5694 1.24225 50.7907 1.24369ZM50.7907 1.46312C50.602 1.46159 50.4147 1.49188 50.2395 1.55226C50.0672 1.61341 49.9109 1.70357 49.7799 1.8174C49.6422 1.9364 49.5319 2.07647 49.4545 2.23035C49.3793 2.38028 49.3405 2.5418 49.3407 2.70501C49.3413 2.86627 49.3794 3.02581 49.4527 3.17433C49.5252 3.32409 49.6312 3.46024 49.7648 3.57509C49.8983 3.6933 50.0574 3.78802 50.2333 3.85394C50.4016 3.91696 50.5831 3.94988 50.7667 3.9507C50.9623 3.95062 51.1559 3.91775 51.3366 3.85394C51.5163 3.79166 51.6798 3.69947 51.8176 3.58271C51.9525 3.47181 52.0598 3.33859 52.1328 3.19113C52.2059 3.04366 52.2432 2.88502 52.2426 2.72481C52.2441 2.55829 52.2085 2.39305 52.1377 2.23796C52.0674 2.08682 51.9625 1.94926 51.8292 1.8334C51.6926 1.71618 51.5307 1.62278 51.3526 1.55836C51.1756 1.4948 50.9854 1.46241 50.7934 1.46312H50.7907ZM50.0946 1.85778H50.8299C51.0954 1.85778 51.2966 1.89511 51.4335 1.96978C51.4993 2.00421 51.553 2.05313 51.5891 2.11143C51.6252 2.16973 51.6424 2.23526 51.6389 2.3012C51.6468 2.40851 51.6074 2.51445 51.5285 2.59809C51.4497 2.68174 51.3371 2.73701 51.2131 2.753L51.6389 3.49509H51.181L50.8023 2.80938H50.5045V3.49509H50.0946V1.85778ZM50.5045 2.07873V2.59377H50.7712C50.8879 2.60125 51.0047 2.58039 51.1081 2.53358C51.1438 2.51261 51.1725 2.48398 51.1912 2.45056C51.2099 2.41713 51.2181 2.38008 51.2148 2.34311C51.2177 2.30437 51.209 2.26564 51.1895 2.23059C51.1701 2.19553 51.1406 2.16529 51.1037 2.14273C50.9948 2.09253 50.8713 2.07031 50.7481 2.07873H50.5045Z" fill="#2B66FA"/>
</svg>
