<svg width="24" height="25" viewBox="0 0 24 25" fill="none" xmlns="http://www.w3.org/2000/svg">
<path d="M23.0319 15.8249L21.2869 14.4289C21.5822 13.0598 21.5822 11.6638 21.2869 10.2947L23.0319 8.89873C23.3272 8.65712 23.4077 8.22759 23.2198 7.8786L21.7433 5.22088C21.5554 4.87188 21.1527 4.71081 20.7769 4.84504L18.6829 5.56987C17.5554 4.4692 16.1863 3.66383 14.6829 3.2343L14.3071 1.03296C14.2534 0.630273 13.9044 0.361816 13.5017 0.361816H10.4681C10.0655 0.361816 9.71647 0.630273 9.66278 1.03296L9.31378 3.2343C7.81043 3.69068 6.4413 4.49604 5.31378 5.59672L3.21982 4.84504C2.84399 4.71081 2.4413 4.87188 2.25338 5.22088L0.776871 7.8786C0.588952 8.22759 0.669489 8.65712 0.991636 8.89873L2.7366 10.2947C2.4413 11.6638 2.4413 13.0598 2.7366 14.4289L0.96479 15.8249C0.669488 16.0665 0.588952 16.496 0.776871 16.845L2.25338 19.5028C2.4413 19.8517 2.84399 20.0128 3.21982 19.8786L5.31378 19.1538C6.4413 20.2544 7.81043 21.0598 9.31378 21.4893L9.68962 23.6907C9.74331 24.0934 10.0923 24.3618 10.495 24.3618H13.5285C13.9312 24.3618 14.2802 24.0934 14.3339 23.6907L14.6829 21.4893C16.1863 21.033 17.5554 20.2276 18.6829 19.1269L20.7769 19.8786C21.1527 20.0128 21.5554 19.8517 21.7433 19.5028L23.2198 16.845C23.4077 16.496 23.3272 16.0665 23.0319 15.8249ZM11.9983 17.7846C8.99164 17.7846 6.57553 15.3685 6.57553 12.3618C6.57553 9.35511 8.99164 6.939 11.9983 6.939C15.0051 6.939 17.4212 9.35511 17.4212 12.3618C17.3943 15.3417 14.9782 17.7578 11.9983 17.7846Z" fill="#505050"/>
</svg>
